<!DOCTYPE svg PUBLIC "-//W3C//DTD SVG 1.1//EN" "http://www.w3.org/Graphics/SVG/1.1/DTD/svg11.dtd">

<!-- Uploaded to: SVG Repo, www.svgrepo.com, Transformed by: SVG Repo Mixer Tools -->
<svg height="18px" width="16px" version="1.1" id="Capa_1" xmlns="http://www.w3.org/2000/svg" xmlns:xlink="http://www.w3.org/1999/xlink" viewBox="0 0 301.542 301.542" xml:space="preserve" fill="#000000">

<g id="SVGRepo_bgCarrier" stroke-width="0"/>

<g id="SVGRepo_tracerCarrier" stroke-linecap="round" stroke-linejoin="round"/>

<g id="SVGRepo_iconCarrier"> <g> <g> <g> <g> <path style="fill:#ffffff;" d="M27.154,291.289c-2.513,0-4.852-1.517-5.825-3.949c-1.159-2.872-0.038-6.168,2.627-7.751 c29.779-17.628,30.72-48.805,25.836-72.709C14.383,181.621-3.93,145.332,0.71,109.341c7.283-56.49,69.239-99.089,144.113-99.089 c6.755,0,13.609,0.348,20.391,1.044c47.461,4.819,88.994,25.64,113.981,57.121c17.362,21.898,24.84,46.716,21.615,71.768 c-7.283,56.485-69.239,99.089-144.124,99.089l0,0c-6.75,0-13.609-0.343-20.38-1.039c-4.509-0.457-9.132-1.093-13.815-1.915 c-23.192,38.057-90.925,54.119-93.911,54.804C28.101,291.24,27.627,291.289,27.154,291.289z"/> </g> </g> </g> </g> </g>

</svg>