<!DOCTYPE svg PUBLIC "-//W3C//DTD SVG 1.1//EN" "http://www.w3.org/Graphics/SVG/1.1/DTD/svg11.dtd">

<!-- Uploaded to: SVG Repo, www.svgrepo.com, Transformed by: SVG Repo Mixer Tools -->
<svg width="16px" height="16px" viewBox="0 0 48 48" xmlns="http://www.w3.org/2000/svg" fill="#ffffff">

<g id="SVGRepo_bgCarrier" stroke-width="0"/>

<g id="SVGRepo_tracerCarrier" stroke-linecap="round" stroke-linejoin="round"/>

<g id="SVGRepo_iconCarrier"> <title>collapse-fullscreen-solid</title> <g id="Layer_2" data-name="Layer 2"> <g id="invisible_box" data-name="invisible box"> <rect width="48" height="48" fill="none"/> </g> <g id="icons_Q2" data-name="icons Q2"> <g> <path d="M8,26a2,2,0,0,0-2,2.3A2.1,2.1,0,0,0,8.1,30h7.1L4.7,40.5a2,2,0,0,0-.2,2.8A1.8,1.8,0,0,0,6,44a2,2,0,0,0,1.4-.6L18,32.8v7.1A2.1,2.1,0,0,0,19.7,42,2,2,0,0,0,22,40V28a2,2,0,0,0-2-2Z"/> <path d="M43.7,4.8a2,2,0,0,0-3.1-.2L30,15.2V8.1A2.1,2.1,0,0,0,28.3,6,2,2,0,0,0,26,8V20a2,2,0,0,0,2,2H39.9A2.1,2.1,0,0,0,42,20.3,2,2,0,0,0,40,18H32.8L43.4,7.5A2.3,2.3,0,0,0,43.7,4.8Z"/> </g> </g> </g> </g>

</svg>